# xmcd CD database file
#
# Track frame offsets:
#	150
#	18103
#	35575
#	48882
#	67821
#
# Disc length: 1264 seconds
#
# Revision: 0
# Processed by: cddbd v1.5.2PL0 Copyright (c) Steve Scherf et al.
# Submitted via: CdAid (MTCDDB.DLL V2003.12.21)
#
DISCID=3104ee05
DTITLE=Deep Vibration - Veracruz
DYEAR=2008
DGENRE=Progressive Rock
TTITLE0=Oklahoma City Woman Blues (Veracruz)
TTITLE1=Third Day of July
TTITLE2=Thanks To You
TTITLE3=Mississippi Woman
TTITLE4=Tennessee Rose
EXTD=EP produced by Niko Bolas and The Deep Vibration ID3G:  92 YEAR: 2008
EXTT0=
EXTT1=
EXTT2=
EXTT3=
EXTT4=
PLAYORDER=
